<?xml version="1.0" standalone="no"?>
<!DOCTYPE svg PUBLIC "-//W3C//DTD SVG 20010904//EN"
 "http://www.w3.org/TR/2001/REC-SVG-20010904/DTD/svg10.dtd">
<svg version="1.0" xmlns="http://www.w3.org/2000/svg"
 width="700.000000pt" height="700.000000pt" viewBox="0 0 700.000000 700.000000"
 preserveAspectRatio="xMidYMid meet">
<metadata>
Created by potrace 1.14, written by Peter Selinger 2001-2017
</metadata>
<g transform="translate(0.000000,700.000000) scale(0.100000,-0.100000)"
fill="#000000" stroke="none">
<path d="M3249 6996 c-2 -2 -42 -6 -89 -10 -83 -6 -408 -54 -421 -61 -3 -2
-21 -7 -40 -10 -95 -16 -428 -119 -491 -151 -15 -8 -29 -14 -30 -13 -16 5
-298 -129 -443 -210 -131 -74 -384 -252 -499 -351 -105 -91 -143 -126 -240
-225 -385 -391 -672 -865 -832 -1375 -50 -161 -62 -201 -67 -230 -3 -14 -15
-72 -27 -130 -12 -58 -23 -116 -25 -130 -2 -14 -6 -41 -9 -60 -24 -144 -31
-261 -30 -510 0 -129 3 -266 7 -305 13 -118 17 -149 22 -175 2 -14 7 -45 10
-70 4 -25 17 -97 31 -160 139 -653 459 -1243 929 -1715 156 -157 206 -201 373
-328 454 -345 993 -572 1577 -662 70 -11 183 -23 290 -30 78 -5 368 -6 420 0
22 2 74 6 115 9 105 8 196 21 365 52 135 24 488 129 596 177 19 8 59 25 89 37
93 37 369 183 475 250 233 149 389 274 596 480 277 275 473 544 646 885 150
295 283 690 318 943 3 20 8 46 10 58 3 12 7 39 10 60 3 21 7 53 10 69 4 28 9
76 20 215 10 120 4 431 -10 560 -11 104 -18 156 -21 175 -2 11 -9 47 -14 80
-16 98 -20 115 -51 240 -75 299 -209 633 -360 895 -34 58 -192 300 -214 328
-157 194 -215 261 -317 365 -393 397 -826 671 -1348 852 -203 70 -527 143
-710 161 -36 3 -76 8 -90 11 -29 5 -525 14 -531 9z m391 -740 c63 -4 126 -8
140 -10 14 -3 43 -7 65 -11 22 -3 56 -8 75 -11 292 -45 640 -172 913 -333 43
-25 86 -50 96 -56 48 -28 190 -133 269 -199 291 -242 526 -537 697 -874 30
-60 55 -112 55 -115 0 -4 12 -32 27 -64 50 -111 134 -385 157 -518 3 -16 8
-41 11 -55 3 -14 8 -50 11 -80 3 -30 7 -57 9 -60 6 -10 19 -251 19 -350 -1
-410 -99 -821 -283 -1190 -66 -130 -97 -188 -115 -210 -7 -8 -15 -22 -18 -30
-8 -21 -131 -192 -201 -278 -60 -74 -239 -260 -312 -323 -117 -102 -208 -168
-387 -282 -195 -124 -480 -242 -738 -307 -125 -32 -140 -35 -245 -51 -38 -6
-81 -12 -95 -15 -47 -8 -255 -18 -360 -17 -103 1 -290 12 -300 18 -3 1 -32 6
-65 9 -309 35 -779 210 -1058 393 -56 37 -106 70 -112 72 -32 13 -266 212
-360 306 -343 343 -602 798 -713 1252 -28 114 -42 176 -47 218 -2 11 -8 54
-13 95 -22 154 -32 486 -18 570 3 14 7 56 11 93 3 37 8 76 10 86 2 10 6 36 9
57 7 45 24 130 40 202 65 290 239 670 424 927 211 294 501 564 795 744 386
236 824 374 1257 397 63 4 116 7 117 8 2 2 107 -2 233 -8z"/>
<path d="M2269 4809 c-126 -45 -223 -142 -262 -264 -48 -148 -9 -312 101 -422
98 -98 246 -143 374 -113 224 53 360 250 326 474 -17 112 -100 231 -202 291
-96 56 -234 70 -337 34z"/>
<path d="M4362 4815 c-229 -63 -357 -321 -272 -548 29 -77 89 -150 162 -198
80 -51 124 -63 233 -63 83 0 96 3 166 36 263 128 320 463 114 670 -102 101
-260 142 -403 103z"/>
<path d="M1608 2932 c-169 -103 -307 -193 -308 -201 0 -8 6 -22 13 -30 8 -9
49 -74 92 -146 226 -375 411 -584 700 -791 138 -99 356 -216 510 -273 33 -13
70 -27 82 -31 39 -16 226 -68 283 -79 30 -6 66 -14 80 -16 14 -3 41 -8 60 -10
19 -3 49 -7 65 -10 153 -23 503 -23 625 0 14 2 41 6 60 9 220 30 479 114 699
228 205 107 348 213 522 387 154 155 267 309 379 516 24 44 51 94 61 110 9 17
34 61 54 99 32 60 35 70 21 78 -8 5 -19 9 -23 9 -5 1 -19 9 -33 19 -14 9 -59
35 -100 57 -41 22 -116 63 -167 91 -51 28 -127 70 -170 93 -43 23 -87 48 -98
56 -11 7 -25 13 -31 13 -7 0 -31 -35 -55 -77 -23 -43 -58 -107 -77 -143 -114
-210 -174 -294 -291 -411 -169 -168 -385 -292 -621 -357 -41 -12 -91 -24 -110
-27 -19 -3 -42 -8 -50 -10 -72 -19 -335 -27 -460 -13 -394 42 -765 222 -1020
495 -80 86 -156 190 -245 336 -33 54 -68 110 -78 125 -9 15 -24 42 -32 60 -8
17 -19 32 -23 32 -4 0 -145 -85 -314 -188z"/>
</g>
</svg>
